<svg width="221" height="178" viewBox="0 0 221 178" fill="none" xmlns="http://www.w3.org/2000/svg">
<path d="M95.8113 18.9146C78.3838 18.9146 62.5693 21.6993 50.7717 26.4111C38.9741 31.1222 30.6193 38.0718 30.6193 46.5859C30.6193 47.4794 30.7112 48.3569 30.8895 49.2153L30.8757 51.2578C30.6361 80.0778 37.8898 108.486 37.3373 136.336C37.1768 144.434 43.5072 151.6 53.7397 156.358C63.9722 161.116 78.2556 163.833 95.6628 163.833C113.083 163.833 126.455 161.043 135.765 156.174C145.075 151.304 150.185 144.106 150.185 136.39C150.185 135.288 150.208 134.184 150.239 133.077C168.43 132.689 182.748 124.924 192.162 114.803C201.76 104.483 206.85 91.751 207.134 80.1671C207.419 68.5832 202.825 56.9054 190.233 52.1481C183.936 49.7694 177.028 49.863 168.975 51.757C166.316 52.3821 163.559 53.2345 160.719 54.3209C160.749 53.3023 160.773 52.2837 160.773 51.279V48.9427C160.916 48.173 160.989 47.3838 160.989 46.5856C160.989 38.0715 152.634 31.1225 140.836 26.4111C129.039 21.699 113.238 18.9146 95.8113 18.9146ZM95.8113 25.4116C112.158 25.4116 126.927 28.1066 137.262 32.2343C147.596 36.361 152.922 41.612 152.922 46.5856C152.922 51.5592 147.596 56.8206 137.262 60.9483C126.927 65.075 112.158 67.76 95.8113 67.76C79.465 67.76 64.6943 65.0754 54.36 60.948C44.0252 56.8213 38.6858 51.5592 38.6858 46.5856C38.6858 41.612 44.0252 36.361 54.36 32.2343C64.6943 28.1063 79.4642 25.4112 95.8104 25.4112L95.8113 25.4116ZM65.7445 38.9806C55.7347 41.3123 49.3823 44.7809 49.3823 48.6503C49.3823 55.6706 70.2728 61.3613 96.04 61.3613C121.807 61.3613 142.684 55.6702 142.684 48.65C142.684 45.0816 137.28 41.8547 128.588 39.5459C130.861 40.973 132.136 42.5677 132.136 44.2612C132.136 50.236 116.267 55.0816 96.6875 55.0816C77.1083 55.0816 61.239 50.236 61.239 44.2608C61.239 42.3425 62.8741 40.543 65.7445 38.9806ZM179.401 62.7193C181.274 62.7113 182.778 62.995 183.946 63.4365C188.619 65.2012 191.891 71.3665 191.676 80.1671C191.46 88.9673 187.483 99.4655 180.089 107.415C173.055 114.976 163.641 120.053 151.114 120.593C152.993 103.264 157.257 85.6566 159.436 69.1937C168.382 64.3814 174.93 62.7388 179.4 62.7189L179.401 62.7193Z" fill="black"/>
</svg>
