<svg width="28" height="20" viewBox="0 0 28 20" fill="none" xmlns="http://www.w3.org/2000/svg">
<path d="M19 10C19 11.3261 18.4732 12.5979 17.5355 13.5355C16.5979 14.4732 15.3261 15 14 15M9 10C9 8.67392 9.52678 7.40215 10.4645 6.46447C11.4021 5.52678 12.6739 5 14 5M11 18.654C11.9837 18.8822 12.9901 18.9982 14 19C21.18 19 27 13 27 10C27 8.664 25.845 6.732 23.929 5M17.5 1.47C16.359 1.16065 15.1822 1.00262 14 1C6.82 1 1 7 1 10C1 11.32 2.127 13.22 4 14.935M5 19L23 1" stroke="black" stroke-width="2" stroke-linecap="round" stroke-linejoin="round"/>
</svg>
